<svg width="24" height="24" viewBox="0 0 24 24" fill="none" xmlns="http://www.w3.org/2000/svg">
<path d="M8.99999 11H15L14.4 14C14.4 16 18 18.4 16.2 20.6C15.5 21.4 8.49999 21.4 7.79999 20.6C5.99999 18.4 9.59999 16 9.59999 14L8.99999 11Z" stroke-width="1.7" stroke-linecap="round" stroke-linejoin="round" stroke="#39735C"/>
<path d="M12 11V8M12 8V5.5M12 8C8.8 8.3 7 6.8 7 4C10.1 3.8 12 5.4 12 8ZM12 5.5V5M12 5.5C12 3.2 13.5 2 16 2C16.1 4.4 14.6 5.8 12 5.5Z" stroke-width="1.7" stroke-linecap="round" stroke-linejoin="round" stroke="#39735C"/>
</svg>
